<mxfile host="app.diagrams.net" agent="Mozilla/5.0 (Windows NT 10.0; Win64; x64) AppleWebKit/537.36 (KHTML, like Gecko) Chrome/136.0.0.0 Safari/537.36" version="27.0.3">
  <diagram name="Page-1" id="erHrNDYXyUTI3wn0kQwp">
    <mxGraphModel dx="2977" dy="1506" grid="1" gridSize="10" guides="1" tooltips="1" connect="1" arrows="1" fold="1" page="1" pageScale="1" pageWidth="850" pageHeight="1100" math="0" shadow="0">
      <root>
        <mxCell id="0" />
        <mxCell id="1" parent="0" />
        <mxCell id="wPT0cLgQfJiIPYKwKjLr-1" value="Start Return Process" style="whiteSpace=wrap;strokeWidth=2;" vertex="1" parent="1">
          <mxGeometry x="320" y="20" width="205" height="54" as="geometry" />
        </mxCell>
        <mxCell id="wPT0cLgQfJiIPYKwKjLr-2" value="Initiate Return Request" style="whiteSpace=wrap;strokeWidth=2;" vertex="1" parent="1">
          <mxGeometry x="309" y="124" width="226" height="54" as="geometry" />
        </mxCell>
        <mxCell id="wPT0cLgQfJiIPYKwKjLr-3" value="Is the item eligible for return?" style="rhombus;strokeWidth=2;whiteSpace=wrap;fillColor=#dae8fc;strokeColor=#6c8ebf;" vertex="1" parent="1">
          <mxGeometry x="283" y="228" width="278" height="278" as="geometry" />
        </mxCell>
        <mxCell id="wPT0cLgQfJiIPYKwKjLr-4" value="Print Return Label" style="whiteSpace=wrap;strokeWidth=2;" vertex="1" parent="1">
          <mxGeometry x="189" y="578" width="190" height="54" as="geometry" />
        </mxCell>
        <mxCell id="wPT0cLgQfJiIPYKwKjLr-5" value="Notify Customer of Ineligibility" style="whiteSpace=wrap;strokeWidth=2;" vertex="1" parent="1">
          <mxGeometry x="505" y="1577" width="260" height="78" as="geometry" />
        </mxCell>
        <mxCell id="wPT0cLgQfJiIPYKwKjLr-6" value="Package Item" style="whiteSpace=wrap;strokeWidth=2;" vertex="1" parent="1">
          <mxGeometry x="206" y="682" width="155" height="54" as="geometry" />
        </mxCell>
        <mxCell id="wPT0cLgQfJiIPYKwKjLr-7" value="Drop-off at Shipping Location" style="whiteSpace=wrap;strokeWidth=2;" vertex="1" parent="1">
          <mxGeometry x="20" y="786" width="260" height="78" as="geometry" />
        </mxCell>
        <mxCell id="wPT0cLgQfJiIPYKwKjLr-8" value="Schedule Pickup" style="whiteSpace=wrap;strokeWidth=2;" vertex="1" parent="1">
          <mxGeometry x="348" y="798" width="175" height="54" as="geometry" />
        </mxCell>
        <mxCell id="wPT0cLgQfJiIPYKwKjLr-9" value="Item Shipped to Warehouse" style="whiteSpace=wrap;strokeWidth=2;" vertex="1" parent="1">
          <mxGeometry x="156" y="914" width="256" height="54" as="geometry" />
        </mxCell>
        <mxCell id="wPT0cLgQfJiIPYKwKjLr-10" value="Receive Item at Warehouse" style="whiteSpace=wrap;strokeWidth=2;" vertex="1" parent="1">
          <mxGeometry x="157" y="1018" width="255" height="54" as="geometry" />
        </mxCell>
        <mxCell id="wPT0cLgQfJiIPYKwKjLr-11" value="Is the item in original condition?" style="rhombus;strokeWidth=2;whiteSpace=wrap;" vertex="1" parent="1">
          <mxGeometry x="145" y="1122" width="278" height="278" as="geometry" />
        </mxCell>
        <mxCell id="wPT0cLgQfJiIPYKwKjLr-12" value="Process Refund" style="whiteSpace=wrap;strokeWidth=2;" vertex="1" parent="1">
          <mxGeometry x="69" y="1473" width="167" height="54" as="geometry" />
        </mxCell>
        <mxCell id="wPT0cLgQfJiIPYKwKjLr-13" value="Notify Customer of Damage" style="whiteSpace=wrap;strokeWidth=2;" vertex="1" parent="1">
          <mxGeometry x="286" y="1473" width="257" height="54" as="geometry" />
        </mxCell>
        <mxCell id="wPT0cLgQfJiIPYKwKjLr-14" value="Refund Completed" style="whiteSpace=wrap;strokeWidth=2;" vertex="1" parent="1">
          <mxGeometry x="188" y="1589" width="192" height="54" as="geometry" />
        </mxCell>
        <mxCell id="wPT0cLgQfJiIPYKwKjLr-15" value="End Return Process" style="whiteSpace=wrap;strokeWidth=2;" vertex="1" parent="1">
          <mxGeometry x="324" y="1705" width="196" height="54" as="geometry" />
        </mxCell>
        <mxCell id="wPT0cLgQfJiIPYKwKjLr-16" value="" style="curved=1;startArrow=none;endArrow=block;exitX=0.5;exitY=1;entryX=0.5;entryY=0;rounded=0;" edge="1" parent="1" source="wPT0cLgQfJiIPYKwKjLr-1" target="wPT0cLgQfJiIPYKwKjLr-2">
          <mxGeometry relative="1" as="geometry">
            <Array as="points" />
          </mxGeometry>
        </mxCell>
        <mxCell id="wPT0cLgQfJiIPYKwKjLr-17" value="" style="curved=1;startArrow=none;endArrow=block;exitX=0.5;exitY=1;entryX=0.5;entryY=0;rounded=0;" edge="1" parent="1" source="wPT0cLgQfJiIPYKwKjLr-2" target="wPT0cLgQfJiIPYKwKjLr-3">
          <mxGeometry relative="1" as="geometry">
            <Array as="points" />
          </mxGeometry>
        </mxCell>
        <mxCell id="wPT0cLgQfJiIPYKwKjLr-18" value="Yes" style="curved=1;startArrow=none;endArrow=block;exitX=0.11;exitY=1;entryX=0.5;entryY=0.01;rounded=0;" edge="1" parent="1" source="wPT0cLgQfJiIPYKwKjLr-3" target="wPT0cLgQfJiIPYKwKjLr-4">
          <mxGeometry relative="1" as="geometry">
            <Array as="points">
              <mxPoint x="284" y="542" />
            </Array>
          </mxGeometry>
        </mxCell>
        <mxCell id="wPT0cLgQfJiIPYKwKjLr-19" value="No" style="curved=1;startArrow=none;endArrow=block;exitX=1;exitY=0.91;entryX=0.5;entryY=0;rounded=0;" edge="1" parent="1" source="wPT0cLgQfJiIPYKwKjLr-3" target="wPT0cLgQfJiIPYKwKjLr-5">
          <mxGeometry relative="1" as="geometry">
            <Array as="points">
              <mxPoint x="635" y="542" />
            </Array>
          </mxGeometry>
        </mxCell>
        <mxCell id="wPT0cLgQfJiIPYKwKjLr-20" value="" style="curved=1;startArrow=none;endArrow=block;exitX=0.5;exitY=1.01;entryX=0.5;entryY=0.01;rounded=0;" edge="1" parent="1" source="wPT0cLgQfJiIPYKwKjLr-4" target="wPT0cLgQfJiIPYKwKjLr-6">
          <mxGeometry relative="1" as="geometry">
            <Array as="points" />
          </mxGeometry>
        </mxCell>
        <mxCell id="wPT0cLgQfJiIPYKwKjLr-21" value="" style="curved=1;startArrow=none;endArrow=block;exitX=0.05;exitY=1.01;entryX=0.5;entryY=0.01;rounded=0;" edge="1" parent="1" source="wPT0cLgQfJiIPYKwKjLr-6" target="wPT0cLgQfJiIPYKwKjLr-7">
          <mxGeometry relative="1" as="geometry">
            <Array as="points">
              <mxPoint x="150" y="761" />
            </Array>
          </mxGeometry>
        </mxCell>
        <mxCell id="wPT0cLgQfJiIPYKwKjLr-22" value="" style="curved=1;startArrow=none;endArrow=block;exitX=1;exitY=1;entryX=0.5;entryY=0.01;rounded=0;" edge="1" parent="1" source="wPT0cLgQfJiIPYKwKjLr-6" target="wPT0cLgQfJiIPYKwKjLr-8">
          <mxGeometry relative="1" as="geometry">
            <Array as="points">
              <mxPoint x="435" y="761" />
            </Array>
          </mxGeometry>
        </mxCell>
        <mxCell id="wPT0cLgQfJiIPYKwKjLr-23" value="" style="curved=1;startArrow=none;endArrow=block;exitX=0.5;exitY=1.01;entryX=0.23;entryY=0.01;rounded=0;" edge="1" parent="1" source="wPT0cLgQfJiIPYKwKjLr-7" target="wPT0cLgQfJiIPYKwKjLr-9">
          <mxGeometry relative="1" as="geometry">
            <Array as="points">
              <mxPoint x="150" y="889" />
            </Array>
          </mxGeometry>
        </mxCell>
        <mxCell id="wPT0cLgQfJiIPYKwKjLr-24" value="" style="curved=1;startArrow=none;endArrow=block;exitX=0.5;exitY=1.01;entryX=0.81;entryY=0.01;rounded=0;" edge="1" parent="1" source="wPT0cLgQfJiIPYKwKjLr-8" target="wPT0cLgQfJiIPYKwKjLr-9">
          <mxGeometry relative="1" as="geometry">
            <Array as="points">
              <mxPoint x="435" y="889" />
            </Array>
          </mxGeometry>
        </mxCell>
        <mxCell id="wPT0cLgQfJiIPYKwKjLr-25" value="" style="curved=1;startArrow=none;endArrow=block;exitX=0.5;exitY=1.01;entryX=0.5;entryY=0.01;rounded=0;" edge="1" parent="1" source="wPT0cLgQfJiIPYKwKjLr-9" target="wPT0cLgQfJiIPYKwKjLr-10">
          <mxGeometry relative="1" as="geometry">
            <Array as="points" />
          </mxGeometry>
        </mxCell>
        <mxCell id="wPT0cLgQfJiIPYKwKjLr-26" value="" style="curved=1;startArrow=none;endArrow=block;exitX=0.5;exitY=1.01;entryX=0.5;entryY=0;rounded=0;" edge="1" parent="1" source="wPT0cLgQfJiIPYKwKjLr-10" target="wPT0cLgQfJiIPYKwKjLr-11">
          <mxGeometry relative="1" as="geometry">
            <Array as="points" />
          </mxGeometry>
        </mxCell>
        <mxCell id="wPT0cLgQfJiIPYKwKjLr-27" value="Yes" style="curved=1;startArrow=none;endArrow=block;exitX=0.13;exitY=1;entryX=0.5;entryY=0;rounded=0;" edge="1" parent="1" source="wPT0cLgQfJiIPYKwKjLr-11" target="wPT0cLgQfJiIPYKwKjLr-12">
          <mxGeometry relative="1" as="geometry">
            <Array as="points">
              <mxPoint x="153" y="1437" />
            </Array>
          </mxGeometry>
        </mxCell>
        <mxCell id="wPT0cLgQfJiIPYKwKjLr-28" value="No" style="curved=1;startArrow=none;endArrow=block;exitX=0.87;exitY=1;entryX=0.5;entryY=0;rounded=0;" edge="1" parent="1" source="wPT0cLgQfJiIPYKwKjLr-11" target="wPT0cLgQfJiIPYKwKjLr-13">
          <mxGeometry relative="1" as="geometry">
            <Array as="points">
              <mxPoint x="415" y="1437" />
            </Array>
          </mxGeometry>
        </mxCell>
        <mxCell id="wPT0cLgQfJiIPYKwKjLr-29" value="" style="curved=1;startArrow=none;endArrow=block;exitX=0.5;exitY=1;entryX=0.21;entryY=0;rounded=0;" edge="1" parent="1" source="wPT0cLgQfJiIPYKwKjLr-12" target="wPT0cLgQfJiIPYKwKjLr-14">
          <mxGeometry relative="1" as="geometry">
            <Array as="points">
              <mxPoint x="153" y="1552" />
            </Array>
          </mxGeometry>
        </mxCell>
        <mxCell id="wPT0cLgQfJiIPYKwKjLr-30" value="" style="curved=1;startArrow=none;endArrow=block;exitX=0.5;exitY=1;entryX=0.79;entryY=0;rounded=0;" edge="1" parent="1" source="wPT0cLgQfJiIPYKwKjLr-13" target="wPT0cLgQfJiIPYKwKjLr-14">
          <mxGeometry relative="1" as="geometry">
            <Array as="points">
              <mxPoint x="415" y="1552" />
            </Array>
          </mxGeometry>
        </mxCell>
        <mxCell id="wPT0cLgQfJiIPYKwKjLr-31" value="" style="curved=1;startArrow=none;endArrow=block;exitX=0.5;exitY=1;entryX=0.13;entryY=0;rounded=0;" edge="1" parent="1" source="wPT0cLgQfJiIPYKwKjLr-14" target="wPT0cLgQfJiIPYKwKjLr-15">
          <mxGeometry relative="1" as="geometry">
            <Array as="points">
              <mxPoint x="284" y="1680" />
            </Array>
          </mxGeometry>
        </mxCell>
        <mxCell id="wPT0cLgQfJiIPYKwKjLr-32" value="" style="curved=1;startArrow=none;endArrow=block;exitX=0.5;exitY=1;entryX=1;entryY=0.05;rounded=0;" edge="1" parent="1" source="wPT0cLgQfJiIPYKwKjLr-5" target="wPT0cLgQfJiIPYKwKjLr-15">
          <mxGeometry relative="1" as="geometry">
            <Array as="points">
              <mxPoint x="635" y="1680" />
            </Array>
          </mxGeometry>
        </mxCell>
      </root>
    </mxGraphModel>
  </diagram>
</mxfile>
